<svg
            xmlns="http://www.w3.org/2000/svg"
            width="31"
            height="19"
            viewBox="0 0 31 19"
            fill="none"
          >
            <path
              fill-rule="evenodd"
              clip-rule="evenodd"
              d="M15.7369 16.2742C14.1698 17.5952 12.1369 18.3926 9.9156 18.3926C4.95916 18.3926 0.941162 14.4224 0.941162 9.52496C0.941162 4.6275 4.95916 0.657318 9.9156 0.657318C12.1369 0.657318 14.1698 1.45476 15.7369 2.77573C17.3041 1.45478 19.3369 0.657341 21.5582 0.657341C26.5147 0.657341 30.5327 4.62752 30.5327 9.52499C30.5327 14.4225 26.5147 18.3926 21.5582 18.3926C19.3369 18.3926 17.304 17.5952 15.7369 16.2742Z"
              fill="#ED0006"
            />
            <path
              fill-rule="evenodd"
              clip-rule="evenodd"
              d="M15.7369 16.2743C17.6665 14.6478 18.8901 12.2276 18.8901 9.52499C18.8901 6.82239 17.6665 4.40217 15.7369 2.77568C17.304 1.45476 19.3368 0.657349 21.5581 0.657349C26.5145 0.657349 30.5325 4.62753 30.5325 9.52499C30.5325 14.4225 26.5145 18.3926 21.5581 18.3926C19.3368 18.3926 17.304 17.5952 15.7369 16.2743Z"
              fill="#F9A000"
            />
            <path
              fill-rule="evenodd"
              clip-rule="evenodd"
              d="M15.7369 16.2743C17.6665 14.6478 18.8901 12.2276 18.8901 9.52501C18.8901 6.82244 17.6665 4.40225 15.7369 2.77576C13.8073 4.40225 12.5838 6.82244 12.5838 9.52501C12.5838 12.2276 13.8073 14.6478 15.7369 16.2743Z"
              fill="#FF5E00"
            />
          </svg>